<svg xmlns="http://www.w3.org/2000/svg" width="123" height="37" viewBox="0 0 123 37" fill="none">
  <path d="M25.149 11.1838C25.1618 11.1967 25.1747 11.2096 25.1875 11.2224L33.0317 7.6494C29.7269 3.02192 24.3131 0 18.2068 0C13.0833 0 8.45035 2.12728 5.13818 5.54416C6.96787 4.94345 8.92431 4.61646 10.9561 4.61646C16.6435 4.61462 21.7339 7.16626 25.149 11.1838Z" fill="#9A4596"/>
  <path d="M18.2068 8.32733C20.9109 8.32733 23.3634 9.41852 25.149 11.1839C21.7339 7.16448 16.6435 4.61469 10.9561 4.61469C8.9243 4.61469 6.9697 4.94168 5.13818 5.54239C1.96011 8.82149 0 13.2891 0 18.2069C0 21.227 0.740324 24.0762 2.04645 26.5874L2.649 26.3137L10.4105 22.7774C12.321 21.9067 13.166 19.6508 12.2953 17.7403L12.0509 17.2057L8.35115 18.8903C8.33645 18.6643 8.32726 18.4365 8.32726 18.2069C8.32543 12.7601 12.7582 8.32733 18.2068 8.32733Z" fill="url(#paint0_linear_23_2503)"/>
  <path d="M10.8148 24.7559L3.05518 28.2903C6.32326 33.1842 11.895 36.4137 18.2089 36.4137C24.0855 36.4137 29.3192 33.614 32.6498 29.2805C30.2524 30.4029 27.5796 31.033 24.756 31.033C19.2064 31.0348 14.2262 28.6063 10.8148 24.7559Z" fill="#9A4596"/>
  <path d="M34.097 9.32666L33.6341 9.53792V9.53608L25.8726 13.0724C23.9621 13.9431 23.1171 16.199 23.9878 18.1095L24.2321 18.6441L28.0036 16.9265C28.0587 17.3453 28.0881 17.7733 28.0881 18.2069C28.0881 23.6555 23.6553 28.0883 18.2067 28.0883C15.2693 28.0883 12.6276 26.7968 10.8163 24.7559H10.8145C14.2258 28.6063 19.2079 31.0349 24.7557 31.0349C27.5774 31.0349 30.2521 30.4066 32.6494 29.2823C35.01 26.2108 36.4153 22.3714 36.4153 18.2069C36.4153 14.9847 35.5721 11.9555 34.097 9.32666Z" fill="url(#paint1_linear_23_2503)"/>
  <path d="M46.2306 10.3223H49.9983V10.0449V8.04989H45.3433V7.32977H58.3678V8.04989H53.8781V10.3223H57.7028V19.5222H56.9827V18.69H46.9507V19.5222H46.2306V10.3223ZM54.5982 15.477C53.564 15.477 53.0643 15.0159 53.101 14.0919V11.0424H50.7184C50.7552 13.1862 49.9046 14.9039 48.1686 16.1971C47.9831 15.9748 47.781 15.7728 47.5587 15.5872C49.2212 14.5162 50.0148 13.0007 49.9414 11.0424H46.9488V18.025H56.9809V11.0424H53.8781V14.0349C53.8414 14.5162 54.1353 14.7367 54.7654 14.6999C55.2816 14.6999 55.8548 14.6999 56.483 14.6999C56.483 14.7753 56.4647 14.9039 56.4279 15.0876C56.3912 15.2731 56.3526 15.4017 56.3177 15.4752C55.8364 15.477 55.2632 15.477 54.5982 15.477ZM50.7184 10.0449V10.3223H53.101V8.04989H50.7184V10.0449Z" fill="black"/>
  <path d="M66.5702 11.9848H70.8927C71.0764 11.6891 71.3171 11.2463 71.6128 10.6548C71.9453 10.1 72.186 9.67568 72.333 9.37992L72.998 9.71242C72.8877 9.9347 72.6838 10.2856 72.3881 10.765C72.0556 11.2831 71.8149 11.6891 71.668 11.9848H74.1057V12.5947H66.5684V11.9848H66.5702ZM66.9027 8.38241H73.775V8.9923H66.9027V8.38241ZM67.5677 14.3123H73.1651V19.4671H72.445V18.4144H68.2878V19.5222H67.5677V14.3123ZM67.733 9.76753L68.2878 9.43503C68.7673 10.1 69.1935 10.7283 69.5627 11.3198L68.9528 11.6523C68.804 11.43 68.602 11.1178 68.3429 10.7099C68.0839 10.3039 67.88 9.98981 67.733 9.76753ZM68.2878 14.9222V17.9148H72.445V14.9222H68.2878ZM69.5627 6.7199L70.2277 6.4425C70.3012 6.55273 70.4114 6.75664 70.5602 7.0524C70.8174 7.46022 71.003 7.75415 71.115 7.93969L70.45 8.27219C70.191 7.79089 69.8952 7.27468 69.5627 6.7199ZM79.705 15.477C79.705 16.8824 79.1134 17.6208 77.9322 17.6943C77.6732 17.7311 77.1735 17.7494 76.4351 17.7494C76.3983 17.4537 76.3248 17.1947 76.2128 16.9742C76.7676 17.0109 77.247 17.0293 77.653 17.0293C78.5403 16.9926 78.983 16.4745 78.983 15.477C78.983 14.406 78.3364 13.2965 77.0431 12.152L78.7056 8.04991H75.658V19.5222H74.8828V7.3849H79.4827V8.10502L77.8753 11.9297C79.1318 13.1128 79.7417 14.294 79.705 15.477Z" fill="black"/>
  <path d="M87.7969 11.2096C89.6431 9.87959 91.0484 8.29056 92.0092 6.4425L92.8414 6.60968C92.8046 6.64642 92.766 6.68316 92.7311 6.7199C92.6209 6.90544 92.5456 7.0524 92.5089 7.16262C93.3962 7.97643 94.4855 8.99231 95.7788 10.2103L95.224 10.765C94.4102 9.87775 93.3759 8.86188 92.1194 7.71741C91.2321 9.15764 89.9572 10.5262 88.2947 11.8195C88.258 11.746 88.1845 11.6358 88.0724 11.487C87.9622 11.3749 87.8704 11.2831 87.7969 11.2096ZM89.2922 11.3198H94.7243C94.7243 12.2439 94.6876 13.1495 94.6141 14.035C94.5406 15.1813 93.9123 15.7526 92.7293 15.7526C92.2113 15.7526 91.7318 15.7526 91.2891 15.7526C91.2891 15.7158 91.2707 15.6791 91.234 15.6424C91.234 15.4954 91.1788 15.2731 91.0686 14.9774C91.6234 15.0141 92.1396 15.0325 92.6209 15.0325C93.4329 15.0692 93.8591 14.7 93.8958 13.9247C93.9326 13.7778 93.9509 13.4636 93.9509 12.9823C93.9877 12.5029 94.006 12.1704 94.006 11.9848H90.016V17.472C89.9793 18.137 90.3852 18.4512 91.2358 18.4144H93.2308C94.0814 18.4144 94.5792 18.1738 94.728 17.6943C94.8382 17.2149 94.9301 16.6968 95.0054 16.142C95.1156 16.1788 95.246 16.2155 95.393 16.2523C95.5767 16.3257 95.7071 16.3827 95.7806 16.4176C95.7806 16.4929 95.7622 16.6031 95.7255 16.7501C95.5767 17.3416 95.4665 17.766 95.393 18.025C95.1707 18.7635 94.5057 19.1327 93.398 19.1327H91.0705C89.8507 19.1695 89.2591 18.6349 89.2977 17.5253V11.3198H89.2922ZM96.6091 7.93969H97.3292V16.3643H96.6091V7.93969ZM99.5447 6.49762H100.265V17.8027C100.265 18.7635 99.767 19.2613 98.7676 19.2999C98.2128 19.2999 97.6397 19.2999 97.05 19.2999C97.05 19.2246 97.0316 19.096 96.9949 18.9123C96.9582 18.7635 96.9196 18.6349 96.8847 18.5247C97.4394 18.5614 98.0291 18.5798 98.6574 18.5798C99.2471 18.5798 99.5447 18.3024 99.5447 17.7476V6.49762Z" fill="black"/>
  <path d="M111.24 12.5947C110.611 12.005 109.91 11.4135 109.134 10.8219L109.634 10.3241C110.372 10.8054 111.093 11.3584 111.796 11.9866L111.24 12.5947ZM109.412 19.1345C109.595 18.5062 109.873 17.472 110.244 16.0318C110.428 15.1445 110.576 14.5162 110.687 14.147C110.723 14.147 110.797 14.1837 110.909 14.2572C111.131 14.3325 111.278 14.3876 111.352 14.4244C111.315 14.6099 111.241 14.9424 111.129 15.4219C110.687 17.2332 110.354 18.5614 110.132 19.4119L109.412 19.1345ZM111.739 9.10248C111.48 8.8802 111.111 8.5477 110.631 8.10498C110.189 7.73573 109.875 7.45834 109.689 7.27464L110.189 6.77496C110.927 7.32975 111.629 7.9029 112.294 8.49259L111.739 9.10248ZM113.844 8.10498V11.9848C113.918 15.3466 113.308 17.8596 112.015 19.5221C111.978 19.4854 111.905 19.4303 111.792 19.355C111.644 19.2062 111.515 19.1143 111.405 19.0776C112.66 17.5639 113.251 15.1978 113.178 11.9829V7.43997H122.322V8.10498H118.555L118 9.93466H121.325V14.9773H118.665V18.0249C118.702 18.949 118.277 19.4101 117.39 19.4101C116.982 19.4101 116.576 19.4101 116.17 19.4101C116.133 19.1878 116.078 18.9471 116.003 18.69C116.372 18.7267 116.778 18.7451 117.223 18.7451C117.702 18.7451 117.943 18.5044 117.943 18.0249V14.9773H115.228V9.93466H117.278L117.778 8.10498H113.844ZM114.454 18.9673C114.306 18.7818 114.14 18.6348 113.955 18.5246C114.509 18.0433 115.193 17.1946 116.005 15.9748L116.615 16.4175C115.951 17.3416 115.23 18.1921 114.454 18.9673ZM115.951 10.5997V12.152H120.662V10.5997H115.951ZM115.951 12.76V14.3123H120.662V12.76H115.951ZM122.434 18.4144L121.88 18.9141C121.51 18.4713 120.974 17.8431 120.272 17.0293C119.976 16.7335 119.774 16.5131 119.662 16.3643L120.217 15.9767C120.66 16.4194 121.27 17.1046 122.047 18.0268C122.232 18.1737 122.361 18.3023 122.434 18.4144Z" fill="black"/>
  <path d="M50.6816 29.0765C50.665 29.1243 50.6448 29.207 50.6173 29.3227C50.6099 29.2804 50.5989 29.2363 50.5879 29.1849C50.564 29.1151 50.564 29.0949 50.564 29.0912L49.2597 24.3921H48.7123L47.3529 29.0802C47.3419 29.139 47.3216 29.2253 47.2941 29.3392L47.2629 29.2106C47.239 29.1408 47.239 29.1206 47.239 29.1169L45.9622 24.3903H45.4111L47.0369 29.8848H47.5274L48.9658 25.1269C48.9823 25.0957 48.997 25.0479 49.0117 24.9855C49.0246 25.0553 49.0319 25.1049 49.0319 25.1306L50.3913 29.8848H50.8818L52.5627 24.3903H52.0116L50.6816 29.0765Z" fill="black"/>
  <path d="M55.5132 27.2763H58.7849V26.8134H55.5132V24.8569H58.9778V24.394H54.9951V29.8885H59.1431V29.4807H55.5132V27.2763Z" fill="black"/>
  <path d="M63.9632 26.8133C62.8647 26.6535 62.3246 26.3118 62.3577 25.8011C62.4458 25.1655 62.9235 24.8385 63.8181 24.8018C64.6962 24.8201 65.1995 25.1931 65.3612 25.9426L65.3722 25.9958L65.9123 25.8599L65.9031 25.8103C65.7157 24.8146 65.003 24.3094 63.7869 24.3094C62.5689 24.348 61.9149 24.844 61.8396 25.7901C61.801 26.6076 62.4734 27.1072 63.8365 27.2744C64.9901 27.4342 65.5486 27.8127 65.4953 28.4005C65.442 29.1647 64.9368 29.5432 63.9522 29.5615C62.8904 29.5615 62.3062 29.0912 62.1629 28.1213L62.1537 28.057L61.6118 28.2609L61.621 28.305C61.8378 29.4109 62.6001 29.9712 63.8861 29.9712C63.9283 29.9712 63.9687 29.9712 64.011 29.9693C65.2822 29.9142 65.9729 29.398 66.0685 28.4354C66.1272 27.583 65.4181 27.0374 63.9632 26.8133Z" fill="black"/>
  <path d="M68.3301 24.8569H70.281V29.8885H70.799V24.8569H72.7518V24.394H68.3301V24.8569Z" fill="black"/>
  <path d="M81.3583 24.7742C82.4054 24.7926 83.0355 25.2206 83.2871 26.084L83.3018 26.1355L83.8732 25.9664L83.8529 25.9132C83.4617 24.8697 82.6405 24.3315 81.4097 24.3113C79.7362 24.3866 78.8489 25.3455 78.7754 27.1697C78.8489 28.9351 79.7729 29.8756 81.5236 29.9693C82.6368 29.951 83.4176 29.6387 83.8474 29.0398L83.8566 29.0251V27.0044H81.4428V27.4673H83.368V28.8267C82.9932 29.297 82.3539 29.545 81.4722 29.5615C80.0962 29.4531 79.3926 28.6779 79.321 27.1973C79.3945 25.6578 80.0613 24.8642 81.3583 24.7742Z" fill="black"/>
  <path d="M87.2402 27.2763H90.512V26.8134H87.2402V24.8569H90.7049V24.394H86.7222V29.8885H90.8702V29.4807H87.2402V27.2763Z" fill="black"/>
  <path d="M97.4726 29.4752L94.3533 24.4197L94.3386 24.394H93.624V29.8885H94.1421V24.89L97.2338 29.8628L97.2485 29.8885H97.9907V24.394H97.4726V29.4752Z" fill="black"/>
  <path d="M101.456 27.2763H104.725V26.8134H101.456V24.8569H104.918V24.394H100.938V29.8885H105.084V29.4807H101.456V27.2763Z" fill="black"/>
  <path d="M109.906 26.8133C108.807 26.6535 108.267 26.3118 108.3 25.8011C108.388 25.1655 108.866 24.8385 109.76 24.8018C110.639 24.8201 111.142 25.1931 111.304 25.9426L111.315 25.9958L111.855 25.8599L111.846 25.8103C111.658 24.8146 110.945 24.3094 109.729 24.3094C108.511 24.348 107.857 24.844 107.782 25.7901C107.743 26.6076 108.416 27.1072 109.779 27.2744C110.932 27.4342 111.491 27.8127 111.438 28.4005C111.384 29.1647 110.879 29.5432 109.895 29.5615C108.833 29.5615 108.249 29.0912 108.105 28.1213L108.096 28.057L107.554 28.2609L107.563 28.305C107.78 29.4109 108.543 29.9712 109.828 29.9712C109.871 29.9712 109.911 29.9712 109.953 29.9693C111.225 29.9142 111.915 29.398 112.011 28.4354C112.07 27.583 111.361 27.0374 109.906 26.8133Z" fill="black"/>
  <path d="M115.285 24.394H114.767V29.8885H115.285V24.394Z" fill="black"/>
  <path d="M120.326 26.8133C119.227 26.6535 118.687 26.3118 118.72 25.8011C118.808 25.1655 119.286 24.8385 120.18 24.8018C121.058 24.8201 121.562 25.1931 121.723 25.9426L121.735 25.9958L122.275 25.8599L122.265 25.8103C122.078 24.8146 121.365 24.3094 120.149 24.3094C118.931 24.348 118.277 24.844 118.202 25.7901C118.163 26.6076 118.836 27.1072 120.199 27.2744C121.352 27.4342 121.911 27.8127 121.858 28.4005C121.804 29.1647 121.299 29.5432 120.314 29.5615C119.253 29.5615 118.669 29.0912 118.525 28.1213L118.516 28.057L117.974 28.2609L117.983 28.305C118.2 29.4109 118.962 29.9712 120.248 29.9712C120.291 29.9712 120.331 29.9712 120.373 29.9693C121.645 29.9142 122.335 29.398 122.431 28.4354C122.49 27.583 121.78 27.0374 120.326 26.8133Z" fill="black"/>
  <defs>
    <linearGradient id="paint0_linear_23_2503" x1="19.0114" y1="8.31158" x2="-2.03947" y2="19.274" gradientUnits="userSpaceOnUse">
      <stop stop-color="#0B326B"/>
      <stop offset="0.2065" stop-color="#353878"/>
      <stop offset="0.4563" stop-color="#603D85"/>
      <stop offset="0.6809" stop-color="#80428E"/>
      <stop offset="0.8697" stop-color="#934494"/>
      <stop offset="1" stop-color="#9A4596"/>
    </linearGradient>
    <linearGradient id="paint1_linear_23_2503" x1="34.2667" y1="18.1503" x2="18.9343" y2="27.376" gradientUnits="userSpaceOnUse">
      <stop stop-color="#9A4596"/>
      <stop offset="0.167" stop-color="#964495"/>
      <stop offset="0.3345" stop-color="#8A4391"/>
      <stop offset="0.5024" stop-color="#76408B"/>
      <stop offset="0.6706" stop-color="#5A3C83"/>
      <stop offset="0.8374" stop-color="#363878"/>
      <stop offset="1" stop-color="#0B326B"/>
    </linearGradient>
  </defs>
</svg>
